<svg width="25" height="25" viewBox="0 0 25 25" fill="none" xmlns="http://www.w3.org/2000/svg">
<path d="M12.632 0.0523071C6.00802 0.0523071 0.632019 5.42831 0.632019 12.0523C0.632019 18.6763 6.00802 24.0523 12.632 24.0523C19.256 24.0523 24.632 18.6763 24.632 12.0523C24.632 5.42831 19.256 0.0523071 12.632 0.0523071ZM12.632 21.6523C7.34002 21.6523 3.03202 17.3443 3.03202 12.0523C3.03202 6.76031 7.34002 2.45231 12.632 2.45231C17.924 2.45231 22.232 6.76031 22.232 12.0523C22.232 17.3443 17.924 21.6523 12.632 21.6523ZM6.03202 18.6523L15.044 14.4643L19.232 5.45231L10.22 9.64031L6.03202 18.6523ZM12.632 10.7323C13.364 10.7323 13.952 11.3203 13.952 12.0523C13.952 12.7843 13.364 13.3723 12.632 13.3723C11.9 13.3723 11.312 12.7843 11.312 12.0523C11.312 11.3203 11.9 10.7323 12.632 10.7323Z" fill="#2D60D2"/>
</svg>
