<svg width="698" height="184" viewBox="0 0 698 184" fill="none" xmlns="http://www.w3.org/2000/svg">
<mask id="path-1-inside-1_134_8" fill="white">
<path d="M0 0H668C684.569 0 698 13.4315 698 30V154C698 170.569 684.569 184 668 184H0V0Z"/>
</mask>
<path d="M0 0H668C684.569 0 698 13.4315 698 30V154C698 170.569 684.569 184 668 184H0V0Z" fill="#ECEFF1"/>
<path d="M0 -1H668C685.121 -1 699 12.8792 699 30H697C697 13.9837 684.016 1 668 1H0V-1ZM699 154C699 171.121 685.121 185 668 185H0V183H668C684.016 183 697 170.016 697 154H699ZM0 184V0V184ZM668 -1C685.121 -1 699 12.8792 699 30V154C699 171.121 685.121 185 668 185V183C684.016 183 697 170.016 697 154V30C697 13.9837 684.016 1 668 1V-1Z" fill="#D0C0FF" mask="url(#path-1-inside-1_134_8)"/>
</svg>
